<?xml version="1.0" encoding="UTF-8"?>
<svg width="512" height="512" viewBox="0 0 512 512"
     xmlns="http://www.w3.org/2000/svg">
  <rect x="0" y="0" width="512" height="512" rx="40" fill="#0f1323"/>
  <g fill="#ffffff" stroke="#ffffff" stroke-width="22" stroke-linecap="round" stroke-linejoin="round">
    
      <rect x="232" y="316" width="48" height="70" rx="8" fill="#ffffff" stroke="none"/>
      <rect x="192" y="386" width="128" height="32" rx="16" fill="#ffffff" stroke="none"/>
      <path d="M156 122h200a8 8 0 0 1 8 8v92a108 108 0 0 1-216 0v-92a8 8 0 0 1 8-8z" />
      <path d="M92 118v24a64 64 0 0 0 64 64" />
      <path d="M420 118v24a64 64 0 0 1-64 64" />
      
  </g>
</svg>